<svg width="23" height="23" viewBox="0 0 23 23" fill="none" xmlns="http://www.w3.org/2000/svg">
<path d="M0.000488281 1.25C0.000488281 1.05109 0.0795059 0.860322 0.220158 0.71967C0.360811 0.579018 0.551576 0.5 0.750488 0.5H3.00049C3.16779 0.500046 3.33026 0.556026 3.46209 0.659037C3.59391 0.762048 3.6875 0.906176 3.72799 1.0685L4.33549 3.5H21.7505C21.8606 3.5001 21.9694 3.52445 22.069 3.57133C22.1687 3.6182 22.2568 3.68644 22.3271 3.77121C22.3974 3.85597 22.4482 3.95518 22.4758 4.06178C22.5034 4.16838 22.5073 4.27976 22.487 4.388L20.237 16.388C20.2048 16.5599 20.1136 16.7151 19.9791 16.8268C19.8446 16.9386 19.6753 16.9998 19.5005 17H6.00049C5.82564 16.9998 5.65634 16.9386 5.52185 16.8268C5.38737 16.7151 5.29616 16.5599 5.26399 16.388L3.01549 4.4105L2.41549 2H0.750488C0.551576 2 0.360811 1.92098 0.220158 1.78033C0.0795059 1.63968 0.000488281 1.44891 0.000488281 1.25ZM4.65349 5L6.62299 15.5H18.878L20.8475 5H4.65349ZM7.50049 17C6.70484 17 5.94178 17.3161 5.37917 17.8787C4.81656 18.4413 4.50049 19.2044 4.50049 20C4.50049 20.7956 4.81656 21.5587 5.37917 22.1213C5.94178 22.6839 6.70484 23 7.50049 23C8.29614 23 9.0592 22.6839 9.62181 22.1213C10.1844 21.5587 10.5005 20.7956 10.5005 20C10.5005 19.2044 10.1844 18.4413 9.62181 17.8787C9.0592 17.3161 8.29614 17 7.50049 17ZM18.0005 17C17.2048 17 16.4418 17.3161 15.8792 17.8787C15.3166 18.4413 15.0005 19.2044 15.0005 20C15.0005 20.7956 15.3166 21.5587 15.8792 22.1213C16.4418 22.6839 17.2048 23 18.0005 23C18.7961 23 19.5592 22.6839 20.1218 22.1213C20.6844 21.5587 21.0005 20.7956 21.0005 20C21.0005 19.2044 20.6844 18.4413 20.1218 17.8787C19.5592 17.3161 18.7961 17 18.0005 17ZM7.50049 18.5C7.89831 18.5 8.27984 18.658 8.56115 18.9393C8.84245 19.2206 9.00049 19.6022 9.00049 20C9.00049 20.3978 8.84245 20.7794 8.56115 21.0607C8.27984 21.342 7.89831 21.5 7.50049 21.5C7.10266 21.5 6.72113 21.342 6.43983 21.0607C6.15852 20.7794 6.00049 20.3978 6.00049 20C6.00049 19.6022 6.15852 19.2206 6.43983 18.9393C6.72113 18.658 7.10266 18.5 7.50049 18.5ZM18.0005 18.5C18.3983 18.5 18.7798 18.658 19.0611 18.9393C19.3425 19.2206 19.5005 19.6022 19.5005 20C19.5005 20.3978 19.3425 20.7794 19.0611 21.0607C18.7798 21.342 18.3983 21.5 18.0005 21.5C17.6027 21.5 17.2211 21.342 16.9398 21.0607C16.6585 20.7794 16.5005 20.3978 16.5005 20C16.5005 19.6022 16.6585 19.2206 16.9398 18.9393C17.2211 18.658 17.6027 18.5 18.0005 18.5Z" fill="black"/>
</svg>
