<?xml version="1.0" standalone="no"?>
<!DOCTYPE svg PUBLIC "-//W3C//DTD SVG 20010904//EN"
 "http://www.w3.org/TR/2001/REC-SVG-20010904/DTD/svg10.dtd">
<svg version="1.0" xmlns="http://www.w3.org/2000/svg"
 width="1024.000000pt" height="1024.000000pt" viewBox="0 0 1024.000000 1024.000000"
 preserveAspectRatio="xMidYMid meet">

<g transform="translate(0.000000,1024.000000) scale(0.100000,-0.100000)"
fill="#000000" stroke="none">
<path d="M6030 8183 c-293 -45 -461 -120 -648 -288 -47 -42 -165 -190 -174
-217 -3 -7 -41 24 -85 68 -127 124 -286 208 -475 250 -99 22 -414 30 -447 12
-64 -35 -76 -95 -62 -303 8 -103 17 -159 35 -212 51 -149 143 -292 254 -394
83 -76 125 -105 227 -157 105 -53 181 -78 304 -98 l101 -17 0 -459 0 -458
-793 0 -793 0 -26 78 c-107 315 -148 384 -270 458 -132 80 -112 78 -593 81
l-430 4 -42 -28 c-52 -33 -73 -75 -73 -140 0 -42 5 -56 35 -91 23 -26 50 -45
73 -52 22 -6 187 -10 415 -10 359 0 380 -1 417 -20 67 -34 79 -59 270 -585 12
-33 27 -76 35 -95 19 -51 28 -74 29 -80 1 -3 14 -39 30 -80 16 -41 39 -102 51
-135 12 -33 38 -103 58 -155 20 -52 77 -205 126 -340 121 -330 130 -352 141
-372 6 -10 10 -23 10 -29 0 -25 65 -164 96 -204 l33 -44 -83 -113 c-199 -271
-234 -340 -234 -460 0 -64 5 -87 28 -135 52 -109 143 -173 275 -193 48 -7 573
-10 1640 -8 l1570 3 44 25 c122 70 99 243 -38 289 -25 8 -462 11 -1617 11
-871 0 -1584 2 -1584 5 0 13 211 324 250 368 4 5 36 -2 71 -15 l64 -23 1085 0
c1172 1 1102 -2 1255 57 238 93 370 226 474 478 92 221 138 339 195 495 13 33
31 78 40 100 10 22 35 85 56 140 21 55 57 147 79 205 77 194 83 213 84 285 2
123 -67 228 -191 291 l-57 29 -942 3 -943 2 0 464 0 463 63 6 c121 12 191 32
318 88 207 91 367 242 479 453 92 173 126 350 119 612 l-4 126 -37 34 -38 34
-112 -1 c-62 -1 -124 -3 -138 -6z m19 -355 c0 -50 -9 -112 -24 -183 -16 -72
-89 -197 -162 -276 -99 -108 -291 -199 -448 -212 l-30 -2 -3 65 c-10 195 101
389 293 515 129 85 162 100 278 124 21 5 41 11 44 15 4 3 17 6 30 6 21 0 23
-4 22 -52z m-1469 -142 c41 -8 100 -23 130 -35 124 -47 256 -157 307 -256 27
-52 53 -157 53 -214 l0 -34 -57 7 c-67 7 -186 42 -223 64 -95 58 -142 93 -187
141 -29 30 -53 61 -53 67 0 7 -7 19 -15 28 -26 26 -57 110 -80 219 -5 24 -3
27 22 27 16 -1 62 -7 103 -14z m-530 -2361 l0 -265 -129 0 -128 0 -23 63 c-12
34 -35 98 -52 142 -17 44 -50 135 -74 203 l-43 122 224 0 225 0 0 -265z m1010
0 l0 -265 -345 0 -345 0 0 265 0 265 345 0 345 0 0 -265z m990 0 l0 -265 -335
0 -335 0 0 265 0 265 335 0 335 0 0 -265z m1137 251 c-3 -8 -35 -92 -71 -188
-36 -95 -78 -207 -94 -248 l-29 -75 -312 -3 -311 -2 0 265 0 265 411 0 c349 0
410 -2 406 -14z m-3137 -1018 c0 -100 -2 -179 -4 -177 -7 7 -126 337 -126 349
0 6 28 10 65 10 l65 0 0 -182z m1010 -113 l0 -295 -345 0 -345 0 0 295 0 295
345 0 345 0 0 -295z m990 0 l0 -295 -335 0 -335 0 0 295 0 295 335 0 335 0 0
-295z m820 290 c0 -7 -76 -196 -118 -295 -58 -136 -175 -234 -324 -273 l-58
-15 0 294 0 294 250 0 c138 0 250 -2 250 -5z"/>
<path d="M4100 3005 c-181 -51 -310 -171 -371 -347 -62 -179 -17 -374 119
-520 l26 -28 -133 0 c-81 0 -141 -4 -154 -12 -56 -29 -63 -83 -16 -122 l31
-26 543 2 543 3 26 24 c31 29 34 69 7 102 -15 19 -30 24 -85 27 l-66 4 48 52
c137 152 169 372 79 555 -59 119 -182 230 -302 271 -80 28 -221 35 -295 15z"/>
<path d="M6365 3008 c-138 -26 -294 -144 -354 -270 -99 -208 -74 -410 72 -574
l49 -54 -141 0 c-131 0 -142 -1 -166 -22 -34 -30 -37 -81 -6 -111 l22 -22 620
0 621 0 24 28 c31 36 31 71 -1 102 -23 24 -29 25 -157 25 l-132 0 40 43 c59
61 82 98 109 175 75 214 16 426 -158 570 -124 102 -279 141 -442 110z"/>
<path d="M3126 2087 c-34 -34 -34 -79 -1 -112 32 -33 75 -33 109 1 49 50 25
119 -46 130 -30 5 -41 2 -62 -19z"/>
<path d="M5031 2084 c-39 -33 -40 -66 -2 -104 l29 -29 202 0 c248 0 270 7 270
89 0 19 -9 36 -26 49 -25 20 -39 21 -235 21 l-207 0 -31 -26z"/>
</g>
</svg>
