<svg width="24" height="24" viewBox="0 0 24 24" fill="none" xmlns="http://www.w3.org/2000/svg">
<g clip-path="url(#clip0_36_384)">
<path d="M17.6137 15.5154C19.0661 13.5336 19.7166 11.0763 19.4351 8.63543C19.1536 6.19451 17.9608 3.94989 16.0954 2.35064C14.23 0.751382 11.8295 -0.0845627 9.37425 0.0100435C6.91897 0.10465 4.58995 1.12283 2.85314 2.86088C1.11633 4.59894 0.0998188 6.92868 0.00696954 9.38403C-0.0858797 11.8394 0.751782 14.2392 2.35237 16.1035C3.95296 17.9677 6.19843 19.1589 8.63955 19.4387C11.0807 19.7184 13.5374 19.0662 15.5183 17.6124H15.5168C15.5618 17.6724 15.6098 17.7294 15.6638 17.7849L21.4385 23.5596C21.7198 23.8411 22.1013 23.9993 22.4992 23.9994C22.8971 23.9996 23.2788 23.8416 23.5602 23.5604C23.8417 23.2791 23.9999 22.8976 24 22.4997C24.0001 22.1018 23.8422 21.7202 23.561 21.4387L17.7862 15.6639C17.7326 15.6097 17.6749 15.5595 17.6137 15.5139V15.5154ZM18.0007 9.74966C18.0007 10.833 17.7873 11.9058 17.3727 12.9067C16.9581 13.9076 16.3504 14.817 15.5844 15.5831C14.8183 16.3491 13.9089 16.9568 12.908 17.3714C11.9071 17.786 10.8343 17.9994 9.75098 17.9994C8.66762 17.9994 7.59486 17.786 6.59396 17.3714C5.59306 16.9568 4.68362 16.3491 3.91757 15.5831C3.15151 14.817 2.54385 13.9076 2.12926 12.9067C1.71468 11.9058 1.50129 10.833 1.50129 9.74966C1.50129 7.56171 2.37045 5.46337 3.91757 3.91625C5.46469 2.36913 7.56303 1.49997 9.75098 1.49997C11.9389 1.49997 14.0373 2.36913 15.5844 3.91625C17.1315 5.46337 18.0007 7.56171 18.0007 9.74966Z" fill="black"/>
</g>
<defs>
<clipPath id="clip0_36_384">
<rect width="24" height="23.9996" fill="white"/>
</clipPath>
</defs>
</svg>
